<?xml version="1.0" encoding="UTF-8" standalone="no"?>
<!DOCTYPE svg PUBLIC "-//W3C//DTD SVG 1.1//EN"
 "http://www.w3.org/Graphics/SVG/1.1/DTD/svg11.dtd">
<!-- Generated by graphviz version 2.47.3 (20210619.1520)
 -->
<!-- Title: dependencies Pages: 1 -->
<svg width="550pt" height="174pt"
 viewBox="0.00 0.00 550.00 173.80" xmlns="http://www.w3.org/2000/svg" xmlns:xlink="http://www.w3.org/1999/xlink">
<g id="graph0" class="graph" transform="scale(1 1) rotate(0) translate(4 169.8)">
<title>dependencies</title>
<polygon fill="white" stroke="transparent" points="-4,4 -4,-169.8 546,-169.8 546,4 -4,4"/>
<text text-anchor="middle" x="271" y="-8.2" font-family="sans-serif" font-size="14.00">dependencies</text>
<g id="clust1" class="cluster">
<title>cluster_CoreModule</title>
<polygon fill="none" stroke="black" stroke-dasharray="1,5" points="8,-32.8 8,-157.8 534,-157.8 534,-32.8 8,-32.8"/>
</g>
<g id="clust6" class="cluster">
<title>cluster_CoreModule_providers</title>
<polygon fill="none" stroke="black" points="16,-40.8 16,-92.8 526,-92.8 526,-40.8 16,-40.8"/>
</g>
<!-- StorageService -->
<g id="node1" class="node">
<title>StorageService</title>
<ellipse fill="#fdb462" stroke="black" cx="449" cy="-66.8" rx="69.48" ry="18"/>
<text text-anchor="middle" x="449" y="-62.6" font-family="Times,serif" font-size="14.00">StorageService</text>
</g>
<!-- CoreModule -->
<g id="node4" class="node">
<title>CoreModule</title>
<polygon fill="#8dd3c7" stroke="black" points="323.26,-149.8 320.26,-153.8 299.26,-153.8 296.26,-149.8 236.74,-149.8 236.74,-113.8 323.26,-113.8 323.26,-149.8"/>
<text text-anchor="middle" x="280" y="-127.6" font-family="Times,serif" font-size="14.00">CoreModule</text>
</g>
<!-- StorageService&#45;&gt;CoreModule -->
<g id="edge1" class="edge">
<title>StorageService&#45;&gt;CoreModule</title>
<path fill="none" stroke="black" d="M449,-84.91C449,-104.14 449,-131.8 449,-131.8 449,-131.8 333.52,-131.8 333.52,-131.8"/>
<polygon fill="black" stroke="black" points="333.52,-128.3 323.52,-131.8 333.52,-135.3 333.52,-128.3"/>
</g>
<!-- TimingInterceptor -->
<g id="node2" class="node">
<title>TimingInterceptor</title>
<ellipse fill="#fdb462" stroke="black" cx="280" cy="-66.8" rx="81.66" ry="18"/>
<text text-anchor="middle" x="280" y="-62.6" font-family="Times,serif" font-size="14.00">TimingInterceptor</text>
</g>
<!-- TimingInterceptor&#45;&gt;CoreModule -->
<g id="edge2" class="edge">
<title>TimingInterceptor&#45;&gt;CoreModule</title>
<path fill="none" stroke="black" d="M280,-84.91C280,-84.91 280,-103.79 280,-103.79"/>
<polygon fill="black" stroke="black" points="276.5,-103.79 280,-113.79 283.5,-103.79 276.5,-103.79"/>
</g>
<!-- TokenInterceptor -->
<g id="node3" class="node">
<title>TokenInterceptor</title>
<ellipse fill="#fdb462" stroke="black" cx="102" cy="-66.8" rx="78.13" ry="18"/>
<text text-anchor="middle" x="102" y="-62.6" font-family="Times,serif" font-size="14.00">TokenInterceptor</text>
</g>
<!-- TokenInterceptor&#45;&gt;CoreModule -->
<g id="edge3" class="edge">
<title>TokenInterceptor&#45;&gt;CoreModule</title>
<path fill="none" stroke="black" d="M102,-84.91C102,-104.14 102,-131.8 102,-131.8 102,-131.8 226.46,-131.8 226.46,-131.8"/>
<polygon fill="black" stroke="black" points="226.46,-135.3 236.46,-131.8 226.46,-128.3 226.46,-135.3"/>
</g>
</g>
</svg>
