<?xml version="1.0" encoding="UTF-8"?>
<!DOCTYPE svg PUBLIC "-//W3C//DTD SVG 1.1//EN" "http://www.w3.org/Graphics/SVG/1.1/DTD/svg11.dtd">
<!-- Creator: CorelDRAW X7 -->
<svg xmlns="http://www.w3.org/2000/svg" xml:space="preserve" width="60.2826mm" height="60.2826mm" version="1.1" style="shape-rendering:geometricPrecision; text-rendering:geometricPrecision; image-rendering:optimizeQuality; fill-rule:evenodd; clip-rule:evenodd"
viewBox="0 0 6028 6028"
 xmlns:xlink="http://www.w3.org/1999/xlink">
 <defs>
  <style type="text/css">
   <![CDATA[
    .fil3 {fill:#01579B}
    .fil4 {fill:#B3E5FC}
    .fil1 {fill:#C62828}
    .fil2 {fill:#FFCDD2}
    .fil0 {fill:url(#id0)}
   ]]>
  </style>
  <linearGradient id="id0" gradientUnits="objectBoundingBox" x1="13.3919%" y1="83.1778%" x2="86.6098%" y2="16.8205%">
   <stop offset="0" style="stop-opacity:1; stop-color:#212121"/>
   <stop offset="1" style="stop-opacity:1; stop-color:#616161"/>
  </linearGradient>
 </defs>
 <g id="Layer_x0020_1">
  <metadata id="CorelCorpID_0Corel-Layer"/>
  <path class="fil0" d="M3016 849c135,-12 256,49 523,185l1192 603c519,264 519,264 356,940l-320 1321c-132,544 -132,544 -627,794l-601 305c-267,135 -388,196 -523,184 -135,12 -256,-49 -523,-184l-602 -305c-495,-250 -495,-250 -626,-794l-320 -1321c-164,-676 -164,-676 356,-940l1192 -603c267,-136 388,-197 523,-185z"/>
  <path class="fil1" d="M3016 1167c115,-10 218,42 446,158l1017 515c443,224 443,224 304,801l-273 1127c-112,464 -112,464 -535,678l-513 260c-228,115 -331,168 -446,157 -115,11 -219,-42 -447,-157l-513 -260c-422,-214 -422,-214 -534,-678l-273 -1127c-140,-577 -140,-577 304,-801l1016 -515c228,-116 332,-168 447,-158z"/>
  <path class="fil2" d="M3015 2884l1 0c250,0 301,119 354,191 91,159 171,324 248,491l-602 0 -1 0 -602 0c78,-167 158,-332 249,-491 52,-72 104,-191 353,-191z"/>
  <path class="fil2" d="M3734 3566l407 0 -351 -760c-113,-246 -312,-316 -578,-336l-1 0c-129,-7 -260,-7 -391,0l0 0c-267,20 -465,90 -578,336l-351 760 407 0c293,-635 351,-767 718,-777 366,10 424,142 718,777z"/>
  <path class="fil0" d="M3016 849c135,-12 256,49 523,185l1192 603c519,264 519,264 356,940l-320 1321c-132,544 -132,544 -627,794l-601 305c-267,135 -388,196 -523,184 -135,12 -256,-49 -523,-184l-602 -305c-495,-250 -495,-250 -626,-794l-320 -1321c-164,-676 -164,-676 356,-940l1192 -603c267,-136 388,-197 523,-185z"/>
  <path class="fil3" d="M3016 1167c115,-10 218,42 446,158l1017 515c443,224 443,224 304,801l-273 1127c-112,464 -112,464 -535,678l-513 260c-228,115 -331,168 -446,157 -115,11 -219,-42 -447,-157l-513 -260c-422,-214 -422,-214 -534,-678l-273 -1127c-140,-577 -140,-577 304,-801l1016 -515c228,-116 332,-168 447,-158z"/>
  <path class="fil4" d="M3015 2884l1 0c250,0 301,119 354,191 91,159 171,324 248,491l-602 0 -1 0 -602 0c78,-167 158,-332 249,-491 52,-72 104,-191 353,-191z"/>
  <path class="fil4" d="M3734 3566l407 0 -351 -760c-113,-246 -312,-316 -578,-336l-1 0c-129,-7 -260,-7 -391,0l0 0c-267,20 -465,90 -578,336l-351 760 407 0c293,-635 351,-767 718,-777 366,10 424,142 718,777z"/>
 </g>
</svg>
