<?xml version="1.0" encoding="UTF-8" standalone="no"?>
<!DOCTYPE svg PUBLIC "-//W3C//DTD SVG 1.1//EN"
 "http://www.w3.org/Graphics/SVG/1.1/DTD/svg11.dtd">
<!-- Generated by graphviz version 2.47.3 (20210619.1520)
 -->
<!-- Title: dependencies Pages: 1 -->
<svg width="641pt" height="174pt"
 viewBox="0.00 0.00 641.00 173.80" xmlns="http://www.w3.org/2000/svg" xmlns:xlink="http://www.w3.org/1999/xlink">
<g id="graph0" class="graph" transform="scale(1 1) rotate(0) translate(4 169.8)">
<title>dependencies</title>
<polygon fill="white" stroke="transparent" points="-4,4 -4,-169.8 637,-169.8 637,4 -4,4"/>
<text text-anchor="middle" x="316.5" y="-8.2" font-family="sans-serif" font-size="14.00">dependencies</text>
<g id="clust1" class="cluster">
<title>cluster_AuthModule</title>
<polygon fill="none" stroke="black" stroke-dasharray="1,5" points="8,-32.8 8,-157.8 625,-157.8 625,-32.8 8,-32.8"/>
</g>
<g id="clust2" class="cluster">
<title>cluster_AuthModule_declarations</title>
<polygon fill="none" stroke="black" points="289,-40.8 289,-92.8 617,-92.8 617,-40.8 289,-40.8"/>
</g>
<g id="clust5" class="cluster">
<title>cluster_AuthModule_imports</title>
<polygon fill="none" stroke="black" points="16,-40.8 16,-92.8 281,-92.8 281,-40.8 16,-40.8"/>
</g>
<!-- LogInPageComponent -->
<g id="node1" class="node">
<title>LogInPageComponent</title>
<polygon fill="#ffffb3" stroke="black" points="609.26,-84.8 466.74,-84.8 466.74,-48.8 609.26,-48.8 609.26,-84.8"/>
<text text-anchor="middle" x="538" y="-62.6" font-family="Times,serif" font-size="14.00">LogInPageComponent</text>
</g>
<!-- AuthModule -->
<g id="node3" class="node">
<title>AuthModule</title>
<polygon fill="#8dd3c7" stroke="black" points="333.55,-149.8 330.55,-153.8 309.55,-153.8 306.55,-149.8 246.45,-149.8 246.45,-113.8 333.55,-113.8 333.55,-149.8"/>
<text text-anchor="middle" x="290" y="-127.6" font-family="Times,serif" font-size="14.00">AuthModule</text>
</g>
<!-- LogInPageComponent&#45;&gt;AuthModule -->
<g id="edge1" class="edge">
<title>LogInPageComponent&#45;&gt;AuthModule</title>
<path fill="none" stroke="black" d="M538,-84.91C538,-104.14 538,-131.8 538,-131.8 538,-131.8 343.77,-131.8 343.77,-131.8"/>
<polygon fill="black" stroke="black" points="343.77,-128.3 333.77,-131.8 343.77,-135.3 343.77,-128.3"/>
</g>
<!-- SignUpPageComponent -->
<g id="node2" class="node">
<title>SignUpPageComponent</title>
<polygon fill="#ffffb3" stroke="black" points="448.82,-84.8 297.18,-84.8 297.18,-48.8 448.82,-48.8 448.82,-84.8"/>
<text text-anchor="middle" x="373" y="-62.6" font-family="Times,serif" font-size="14.00">SignUpPageComponent</text>
</g>
<!-- SignUpPageComponent&#45;&gt;AuthModule -->
<g id="edge2" class="edge">
<title>SignUpPageComponent&#45;&gt;AuthModule</title>
<path fill="none" stroke="black" d="M315.56,-84.91C315.56,-84.91 315.56,-103.79 315.56,-103.79"/>
<polygon fill="black" stroke="black" points="312.06,-103.79 315.56,-113.79 319.06,-103.79 312.06,-103.79"/>
</g>
<!-- AuthRoutingModule -->
<g id="node4" class="node">
<title>AuthRoutingModule</title>
<polygon fill="#8dd3c7" stroke="black" points="273.17,-84.8 270.17,-88.8 249.17,-88.8 246.17,-84.8 140.83,-84.8 140.83,-48.8 273.17,-48.8 273.17,-84.8"/>
<text text-anchor="middle" x="207" y="-62.6" font-family="Times,serif" font-size="14.00">AuthRoutingModule</text>
</g>
<!-- AuthRoutingModule&#45;&gt;AuthModule -->
<g id="edge3" class="edge">
<title>AuthRoutingModule&#45;&gt;AuthModule</title>
<path fill="none" stroke="black" d="M259.78,-84.91C259.78,-84.91 259.78,-103.79 259.78,-103.79"/>
<polygon fill="black" stroke="black" points="256.28,-103.79 259.78,-113.79 263.28,-103.79 256.28,-103.79"/>
</g>
<!-- SharedModule -->
<g id="node5" class="node">
<title>SharedModule</title>
<polygon fill="#8dd3c7" stroke="black" points="122.42,-84.8 119.42,-88.8 98.42,-88.8 95.42,-84.8 23.58,-84.8 23.58,-48.8 122.42,-48.8 122.42,-84.8"/>
<text text-anchor="middle" x="73" y="-62.6" font-family="Times,serif" font-size="14.00">SharedModule</text>
</g>
<!-- SharedModule&#45;&gt;AuthModule -->
<g id="edge4" class="edge">
<title>SharedModule&#45;&gt;AuthModule</title>
<path fill="none" stroke="black" d="M73,-84.91C73,-104.14 73,-131.8 73,-131.8 73,-131.8 236.35,-131.8 236.35,-131.8"/>
<polygon fill="black" stroke="black" points="236.35,-135.3 246.35,-131.8 236.35,-128.3 236.35,-135.3"/>
</g>
</g>
</svg>
