<?xml version="1.0" encoding="UTF-8" standalone="no"?>
<!DOCTYPE svg PUBLIC "-//W3C//DTD SVG 1.1//EN"
 "http://www.w3.org/Graphics/SVG/1.1/DTD/svg11.dtd">
<!-- Generated by graphviz version 2.47.3 (20210619.1520)
 -->
<!-- Title: dependencies Pages: 1 -->
<svg width="859pt" height="174pt"
 viewBox="0.00 0.00 859.00 173.80" xmlns="http://www.w3.org/2000/svg" xmlns:xlink="http://www.w3.org/1999/xlink">
<g id="graph0" class="graph" transform="scale(1 1) rotate(0) translate(4 169.8)">
<title>dependencies</title>
<polygon fill="white" stroke="transparent" points="-4,4 -4,-169.8 855,-169.8 855,4 -4,4"/>
<text text-anchor="middle" x="425.5" y="-8.2" font-family="sans-serif" font-size="14.00">dependencies</text>
<g id="clust1" class="cluster">
<title>cluster_HeroModule</title>
<polygon fill="none" stroke="black" stroke-dasharray="1,5" points="8,-32.8 8,-157.8 843,-157.8 843,-32.8 8,-32.8"/>
</g>
<g id="clust2" class="cluster">
<title>cluster_HeroModule_declarations</title>
<polygon fill="none" stroke="black" points="289,-40.8 289,-92.8 835,-92.8 835,-40.8 289,-40.8"/>
</g>
<g id="clust6" class="cluster">
<title>cluster_HeroModule_imports</title>
<polygon fill="none" stroke="black" points="16,-40.8 16,-92.8 281,-92.8 281,-40.8 16,-40.8"/>
</g>
<!-- HeroDetailPageComponent -->
<g id="node1" class="node">
<title>HeroDetailPageComponent</title>
<polygon fill="#ffffb3" stroke="black" points="827.23,-84.8 656.77,-84.8 656.77,-48.8 827.23,-48.8 827.23,-84.8"/>
<text text-anchor="middle" x="742" y="-62.6" font-family="Times,serif" font-size="14.00">HeroDetailPageComponent</text>
</g>
<!-- HeroModule -->
<g id="node4" class="node">
<title>HeroModule</title>
<polygon fill="#8dd3c7" stroke="black" points="424.53,-149.8 421.53,-153.8 400.53,-153.8 397.53,-149.8 337.47,-149.8 337.47,-113.8 424.53,-113.8 424.53,-149.8"/>
<text text-anchor="middle" x="381" y="-127.6" font-family="Times,serif" font-size="14.00">HeroModule</text>
</g>
<!-- HeroDetailPageComponent&#45;&gt;HeroModule -->
<g id="edge1" class="edge">
<title>HeroDetailPageComponent&#45;&gt;HeroModule</title>
<path fill="none" stroke="black" d="M742,-85.08C742,-106.12 742,-137.8 742,-137.8 742,-137.8 434.55,-137.8 434.55,-137.8"/>
<polygon fill="black" stroke="black" points="434.55,-134.3 424.55,-137.8 434.54,-141.3 434.55,-134.3"/>
</g>
<!-- HeroRemoveComponent -->
<g id="node2" class="node">
<title>HeroRemoveComponent</title>
<polygon fill="#ffffb3" stroke="black" points="638.97,-84.8 483.03,-84.8 483.03,-48.8 638.97,-48.8 638.97,-84.8"/>
<text text-anchor="middle" x="561" y="-62.6" font-family="Times,serif" font-size="14.00">HeroRemoveComponent</text>
</g>
<!-- HeroRemoveComponent&#45;&gt;HeroModule -->
<g id="edge2" class="edge">
<title>HeroRemoveComponent&#45;&gt;HeroModule</title>
<path fill="none" stroke="black" d="M561,-84.82C561,-102.17 561,-125.8 561,-125.8 561,-125.8 434.57,-125.8 434.57,-125.8"/>
<polygon fill="black" stroke="black" points="434.57,-122.3 424.57,-125.8 434.57,-129.3 434.57,-122.3"/>
</g>
<!-- MyHeroesPageComponent -->
<g id="node3" class="node">
<title>MyHeroesPageComponent</title>
<polygon fill="#ffffb3" stroke="black" points="464.63,-84.8 297.37,-84.8 297.37,-48.8 464.63,-48.8 464.63,-84.8"/>
<text text-anchor="middle" x="381" y="-62.6" font-family="Times,serif" font-size="14.00">MyHeroesPageComponent</text>
</g>
<!-- MyHeroesPageComponent&#45;&gt;HeroModule -->
<g id="edge3" class="edge">
<title>MyHeroesPageComponent&#45;&gt;HeroModule</title>
<path fill="none" stroke="black" d="M381,-84.91C381,-84.91 381,-103.79 381,-103.79"/>
<polygon fill="black" stroke="black" points="377.5,-103.79 381,-113.79 384.5,-103.79 377.5,-103.79"/>
</g>
<!-- HeroRoutingModule -->
<g id="node5" class="node">
<title>HeroRoutingModule</title>
<polygon fill="#8dd3c7" stroke="black" points="273.15,-84.8 270.15,-88.8 249.15,-88.8 246.15,-84.8 140.85,-84.8 140.85,-48.8 273.15,-48.8 273.15,-84.8"/>
<text text-anchor="middle" x="207" y="-62.6" font-family="Times,serif" font-size="14.00">HeroRoutingModule</text>
</g>
<!-- HeroRoutingModule&#45;&gt;HeroModule -->
<g id="edge4" class="edge">
<title>HeroRoutingModule&#45;&gt;HeroModule</title>
<path fill="none" stroke="black" d="M207,-84.82C207,-102.17 207,-125.8 207,-125.8 207,-125.8 327.09,-125.8 327.09,-125.8"/>
<polygon fill="black" stroke="black" points="327.09,-129.3 337.09,-125.8 327.09,-122.3 327.09,-129.3"/>
</g>
<!-- SharedModule -->
<g id="node6" class="node">
<title>SharedModule</title>
<polygon fill="#8dd3c7" stroke="black" points="122.42,-84.8 119.42,-88.8 98.42,-88.8 95.42,-84.8 23.58,-84.8 23.58,-48.8 122.42,-48.8 122.42,-84.8"/>
<text text-anchor="middle" x="73" y="-62.6" font-family="Times,serif" font-size="14.00">SharedModule</text>
</g>
<!-- SharedModule&#45;&gt;HeroModule -->
<g id="edge5" class="edge">
<title>SharedModule&#45;&gt;HeroModule</title>
<path fill="none" stroke="black" d="M73,-85.08C73,-106.12 73,-137.8 73,-137.8 73,-137.8 327.2,-137.8 327.2,-137.8"/>
<polygon fill="black" stroke="black" points="327.2,-141.3 337.2,-137.8 327.2,-134.3 327.2,-141.3"/>
</g>
</g>
</svg>
