<svg
  xmlns="http://www.w3.org/2000/svg"
  viewBox="0 0 150 200" width="100"
  fill="none"
  class="docs-what-is-angular-svg"
>
  <path
    fill="var(--senary-contrast)"
    d="M63.28 128.703H13.598a7.516 7.516 0 0 0-7.51 7.51v21.149a7.516 7.516 0 0 0 7.51 7.51h36.637l10.482 9.076v-9.076h2.565a7.516 7.516 0 0 0 7.51-7.51v-21.149a7.516 7.516 0 0 0-7.51-7.51ZM239.289 43.578h49.684a7.516 7.516 0 0 1 7.51 7.51v21.149a7.516 7.516 0 0 1-7.51 7.51h-36.637l-10.482 9.076v-9.076h-2.565a7.516 7.516 0 0 1-7.51-7.51V51.088a7.516 7.516 0 0 1 7.51-7.51Z"
    style="mix-blend-mode:multiply"
  />
  <path
    fill="#fff"
    stroke="var(--primary-contrast)"
    stroke-miterlimit="10"
    stroke-width=".934"
    d="M235.713 39.349h49.684a7.515 7.515 0 0 1 7.509 7.51v21.148a7.515 7.515 0 0 1-7.509 7.51h-36.638l-10.481 9.076v-9.076h-2.565a7.515 7.515 0 0 1-7.51-7.51V46.86a7.515 7.515 0 0 1 7.51-7.51Z"
  />
  <path
    stroke="var(--primary-contrast)"
    stroke-miterlimit="10"
    stroke-width=".934"
    d="M148.615 185.737c43.941 0 79.563-35.622 79.563-79.564 0-43.941-35.622-79.563-79.563-79.563-43.942 0-79.564 35.622-79.564 79.563 0 43.942 35.622 79.564 79.564 79.564Z"
  />
  <path
    stroke="var(--primary-contrast)"
    stroke-miterlimit="10"
    stroke-width=".934"
    d="M173.322 181.818c27.773-9.072 39.226-50.288 25.582-92.058-13.644-41.77-47.22-68.276-74.993-59.203-27.773 9.072-39.226 50.287-25.582 92.057 13.644 41.77 47.22 68.276 74.993 59.204Z"
  />
  <path
    stroke="var(--primary-contrast)"
    stroke-miterlimit="10"
    stroke-width=".934"
    d="M173.321 181.818c11.225-3.667 9.265-40.501-4.38-82.27-13.644-41.77-33.805-72.658-45.031-68.992-11.226 3.668-9.265 40.501 4.379 82.271 13.645 41.769 33.806 72.658 45.032 68.991Z"
  />
  <path
    stroke="var(--primary-contrast)"
    stroke-miterlimit="10"
    stroke-width=".934"
    d="M135.676 66.567c29.126-9.514 50.866-22.958 48.556-30.027-2.309-7.07-27.792-5.088-56.918 4.427-29.126 9.514-50.866 22.958-48.556 30.027 2.309 7.07 27.792 5.088 56.918-4.427Z"
  />
  <path
    stroke="var(--primary-contrast)"
    stroke-miterlimit="10"
    stroke-width=".934"
    d="M144.433 93.398c38.164-12.467 66.648-30.083 63.622-39.347-3.026-9.264-36.417-6.668-74.581 5.798-38.163 12.467-66.648 30.083-63.622 39.347 3.026 9.264 36.417 6.668 74.581-5.798Z"
  />
  <path
    stroke="var(--primary-contrast)"
    stroke-miterlimit="10"
    stroke-width=".934"
    d="M153.616 121.498c41.77-13.644 72.946-32.924 69.635-43.062-3.312-10.138-39.858-7.295-81.627 6.349-41.77 13.644-72.946 32.924-69.634 43.062 3.311 10.138 39.857 7.296 81.626-6.349Z"
  />
  <path
    stroke="var(--primary-contrast)"
    stroke-miterlimit="10"
    stroke-width=".934"
    d="M162.397 148.23c39.504-12.904 68.904-31.4 65.666-41.311-3.238-9.912-37.886-7.486-77.39 5.418-39.504 12.905-68.903 31.4-65.666 41.312 3.238 9.911 37.887 7.485 77.39-5.419Z"
  />
  <path
    stroke="var(--primary-contrast)"
    stroke-miterlimit="10"
    stroke-width=".934"
    d="M168.898 168.485c31.548-10.305 55.034-25.051 52.458-32.937-2.576-7.885-30.238-5.923-61.785 4.382-31.548 10.305-55.034 25.051-52.458 32.937 2.576 7.885 30.238 5.923 61.785-4.382Z"
  />
  <path
    fill="var(--page-background)"
    stroke="var(--primary-contrast)"
    stroke-miterlimit="10"
    stroke-width=".934"
    d="M232.149 7.114h-7.88v7.88h7.88v-7.88ZM24.028 34.243h-7.88v7.88h7.88v-7.88ZM200.902 22.392h-4.193v4.193h4.193v-4.193ZM8.911 15.906H4.72V20.1H8.91v-4.193ZM258.834 110.305h-4.192v4.192h4.192v-4.192ZM4.718 98.244H.525v4.193h4.193v-4.193Z"
  />
  <path
    stroke="#F637E3"
    stroke-miterlimit="10"
    stroke-width=".934"
    d="M44.105 96.123c1.899-41.964 30.693-76.912 69.538-88.035"
  />
  <path
    fill="#F637E3"
    d="m47.312 95.358-3.305 5.192-2.836-5.45 6.141.258ZM113.644 11.368l4.291-4.402-5.968-1.517 1.677 5.92Z"
  />
  <path
    stroke="var(--primary-contrast)"
    stroke-miterlimit="10"
    stroke-width=".934"
    d="M240.028 140.714C226.131 177.684 190.443 204 148.614 204c-23.195 0-44.504-8.09-61.25-21.605"
  />
  <path
    fill="var(--primary-contrast)"
    d="m236.775 140.467 4.723-3.921 1.036 6.055-5.759-2.134ZM90.051 180.496l-6.067-.949 2.207 5.734 3.86-4.785Z"
  />
  <path
    fill="#F11653"
    d="M260.562 69.586c-.074 0-.148-.037-.246-.111-3.058-2.355-6.289-4.908-9.175-7.917-1.406-1.455-2.972-3.194-3.86-5.315-.888-2.133-.888-4.513.013-6.523.851-1.9 2.454-3.342 4.501-4.045.37-.123.752-.197 1.134-.284.185-.037.37-.074.555-.123h1.258c.185.074.444.136.715.21.567.148 1.159.295 1.69.505 1.183.481 2.219 1.357 3.144 2.676l.234.32.555-.653c.21-.246.407-.493.617-.715 1.196-1.27 2.676-2.01 4.39-2.232.111-.012.21-.05.296-.086h1.319c.161.037.407.098.654.148.53.123 1.036.234 1.492.444 2.725 1.196 4.267 3.304 4.575 6.264.271 2.503-.542 4.76-2.614 7.325-2.639 3.243-5.833 5.894-8.891 8.336a35.3 35.3 0 0 1-1.061.826c-.345.272-.69.53-1.036.802-.111.099-.209.135-.296.135l.037.013Z"
  />
  <path
    fill="#000"
    d="M267.638 45.589c.222.061.444.11.666.16.518.123.999.234 1.443.42 2.651 1.17 4.094 3.131 4.402 6.005.259 2.417-.53 4.6-2.552 7.09-2.615 3.219-5.809 5.858-8.842 8.3a35.3 35.3 0 0 1-1.061.826c-.345.259-.69.53-1.023.801-.062.05-.099.062-.099.074 0 0-.025-.012-.062-.037-3.045-2.355-6.264-4.895-9.15-7.892-1.381-1.443-2.922-3.145-3.798-5.229-.863-2.047-.851-4.34.013-6.276.813-1.826 2.343-3.207 4.316-3.885.345-.123.703-.185 1.097-.271.16-.037.333-.062.493-.099h1.172c.234.062.481.123.727.185.58.148 1.135.284 1.653.493 1.134.457 2.121 1.295 3.009 2.565l.456.654.518-.604c.111-.124.21-.247.308-.37.198-.247.395-.481.605-.703a6.86 6.86 0 0 1 4.205-2.133c.148-.013.271-.062.37-.1h1.134m.086-.616h-1.331c-.111.037-.222.087-.333.111-1.801.222-3.33 1-4.575 2.319-.321.332-.605.703-.938 1.085-.875-1.233-1.911-2.232-3.28-2.787-.801-.32-1.677-.493-2.528-.728h-1.332c-.579.136-1.171.21-1.726.407-4.772 1.653-6.474 6.72-4.698 10.975.875 2.109 2.367 3.798 3.921 5.414 2.824 2.935 5.993 5.475 9.212 7.954.148.11.296.172.431.172.161 0 .321-.074.494-.21.69-.554 1.405-1.072 2.084-1.627 3.194-2.565 6.338-5.192 8.94-8.385 1.788-2.195 3.009-4.6 2.688-7.547-.333-3.083-1.936-5.266-4.76-6.511-.715-.321-1.516-.432-2.281-.642h.012Z"
  />
  <path
    fill="#F11653"
    stroke="#000"
    stroke-miterlimit="10"
    stroke-width=".934"
    d="M80.248 77.441c0-6.45-5.426-11.629-11.95-11.222-5.61.346-10.173 4.908-10.518 10.52a11.276 11.276 0 0 0 .407 3.773c.234.85.58 1.652.999 2.404l.05.099v.025l8.557 15.476c.53.95 1.887.95 2.417 0l8.62-15.587a11.189 11.189 0 0 0 1.418-5.463v-.025ZM69.002 81.82a3.916 3.916 0 0 1-3.922-3.922 3.916 3.916 0 0 1 3.922-3.921 3.916 3.916 0 0 1 3.921 3.921 3.916 3.916 0 0 1-3.921 3.922Z"
  />
  <path
    fill="#8514F5"
    stroke="#000"
    stroke-miterlimit="10"
    stroke-width=".934"
    d="M210.791 133.525c0-6.45-5.426-11.629-11.962-11.222-5.611.345-10.173 4.908-10.519 10.519a11.282 11.282 0 0 0 .407 3.773c.235.851.58 1.653.999 2.405l.049.099v.024l8.559 15.476c.53.95 1.886.95 2.417 0l8.619-15.587a11.178 11.178 0 0 0 1.418-5.463l.013-.024Zm-11.247 4.377a3.915 3.915 0 0 1-3.921-3.921 3.915 3.915 0 0 1 3.921-3.921 3.915 3.915 0 0 1 3.922 3.921 3.915 3.915 0 0 1-3.922 3.921Z"
  />
  <path
    fill="#F637E3"
    stroke="#000"
    stroke-miterlimit="10"
    stroke-width=".934"
    d="M144.349 105.064c0-6.45-5.426-11.629-11.962-11.222-5.611.345-10.173 4.908-10.519 10.519a11.282 11.282 0 0 0 .407 3.773c.234.851.58 1.653.999 2.405l.049.099v.024l8.558 15.476c.531.95 1.887.95 2.417 0l8.62-15.587a11.188 11.188 0 0 0 1.418-5.463l.013-.024Zm-11.247 4.377a3.915 3.915 0 0 1-3.921-3.921 3.916 3.916 0 0 1 3.921-3.922 3.916 3.916 0 0 1 3.922 3.922 3.915 3.915 0 0 1-3.922 3.921Z"
  />
  <path
    fill="#5C44E4"
    stroke="#000"
    stroke-miterlimit="10"
    stroke-width=".934"
    d="M166.102 11.923c0-6.45-5.426-11.629-11.962-11.222-5.611.346-10.173 4.908-10.519 10.52a11.285 11.285 0 0 0 .407 3.773c.235.85.58 1.652.999 2.404l.05.099v.025l8.558 15.476c.53.95 1.886.95 2.417 0l8.619-15.587a11.181 11.181 0 0 0 1.419-5.463l.012-.025Zm-11.247 4.378a3.915 3.915 0 0 1-3.921-3.922 3.915 3.915 0 0 1 3.921-3.921 3.916 3.916 0 0 1 3.922 3.921 3.916 3.916 0 0 1-3.922 3.922Z"
  />
  <path
    fill="#8514F5"
    stroke="#000"
    stroke-miterlimit="10"
    stroke-width=".934"
    d="M57.781 123.586H8.097a7.515 7.515 0 0 0-7.51 7.51v21.148a7.515 7.515 0 0 0 7.51 7.51h36.637l10.482 9.076v-9.076h2.565a7.515 7.515 0 0 0 7.51-7.51v-21.148a7.515 7.515 0 0 0-7.51-7.51Z"
  />
  <path
    fill="#fff"
    stroke="#000"
    stroke-miterlimit="10"
    stroke-width=".934"
    d="M59.234 133.241H6.653v2.886h52.581v-2.886ZM59.234 140.776H6.653v2.885h52.581v-2.885ZM37.827 148.31H6.653v2.886h31.174v-2.886Z"
  />
</svg>
