<?xml version="1.0" encoding="UTF-8" standalone="no"?>
<!DOCTYPE svg PUBLIC "-//W3C//DTD SVG 1.1//EN"
 "http://www.w3.org/Graphics/SVG/1.1/DTD/svg11.dtd">
<!-- Generated by graphviz version 2.47.3 (20210619.1520)
 -->
<!-- Title: dependencies Pages: 1 -->
<svg width="772pt" height="247pt"
 viewBox="0.00 0.00 772.00 246.80" xmlns="http://www.w3.org/2000/svg" xmlns:xlink="http://www.w3.org/1999/xlink">
<g id="graph0" class="graph" transform="scale(1 1) rotate(0) translate(4 242.8)">
<title>dependencies</title>
<polygon fill="white" stroke="transparent" points="-4,4 -4,-242.8 768,-242.8 768,4 -4,4"/>
<text text-anchor="middle" x="382" y="-8.2" font-family="sans-serif" font-size="14.00">dependencies</text>
<g id="clust1" class="cluster">
<title>cluster_AppModule</title>
<polygon fill="none" stroke="black" stroke-dasharray="1,5" points="8,-32.8 8,-230.8 756,-230.8 756,-32.8 8,-32.8"/>
</g>
<g id="clust2" class="cluster">
<title>cluster_AppModule_declarations</title>
<polygon fill="none" stroke="black" points="626,-40.8 626,-92.8 748,-92.8 748,-40.8 626,-40.8"/>
</g>
<g id="clust4" class="cluster">
<title>cluster_AppModule_imports</title>
<polygon fill="none" stroke="black" points="16,-40.8 16,-92.8 618,-92.8 618,-40.8 16,-40.8"/>
</g>
<g id="clust6" class="cluster">
<title>cluster_AppModule_bootstrap</title>
<polygon fill="none" stroke="black" points="299,-170.8 299,-222.8 423,-222.8 423,-170.8 299,-170.8"/>
</g>
<!-- AppComponent -->
<g id="node1" class="node">
<title>AppComponent</title>
<polygon fill="#ffffb3" stroke="black" points="739.94,-84.8 634.06,-84.8 634.06,-48.8 739.94,-48.8 739.94,-84.8"/>
<text text-anchor="middle" x="687" y="-62.6" font-family="Times,serif" font-size="14.00">AppComponent</text>
</g>
<!-- AppModule -->
<g id="node2" class="node">
<title>AppModule</title>
<polygon fill="#8dd3c7" stroke="black" points="402.66,-149.8 399.66,-153.8 378.66,-153.8 375.66,-149.8 319.34,-149.8 319.34,-113.8 402.66,-113.8 402.66,-149.8"/>
<text text-anchor="middle" x="361" y="-127.6" font-family="Times,serif" font-size="14.00">AppModule</text>
</g>
<!-- AppComponent&#45;&gt;AppModule -->
<g id="edge1" class="edge">
<title>AppComponent&#45;&gt;AppModule</title>
<path fill="none" stroke="black" d="M687,-85.08C687,-106.12 687,-137.8 687,-137.8 687,-137.8 412.95,-137.8 412.95,-137.8"/>
<polygon fill="black" stroke="black" points="412.95,-134.3 402.95,-137.8 412.95,-141.3 412.95,-134.3"/>
</g>
<!-- AppComponent  -->
<g id="node8" class="node">
<title>AppComponent </title>
<polygon fill="#80b1d3" stroke="black" points="415.44,-214.8 306.56,-214.8 306.56,-178.8 415.44,-178.8 415.44,-214.8"/>
<text text-anchor="middle" x="361" y="-192.6" font-family="Times,serif" font-size="14.00">AppComponent </text>
</g>
<!-- AppModule&#45;&gt;AppComponent  -->
<g id="edge7" class="edge">
<title>AppModule&#45;&gt;AppComponent </title>
<path fill="none" stroke="black" stroke-dasharray="1,5" d="M361,-149.91C361,-149.91 361,-168.79 361,-168.79"/>
<polygon fill="black" stroke="black" points="357.5,-168.79 361,-178.79 364.5,-168.79 357.5,-168.79"/>
</g>
<!-- AppRoutingModule -->
<g id="node3" class="node">
<title>AppRoutingModule</title>
<polygon fill="#8dd3c7" stroke="black" points="610.27,-84.8 607.27,-88.8 586.27,-88.8 583.27,-84.8 481.73,-84.8 481.73,-48.8 610.27,-48.8 610.27,-84.8"/>
<text text-anchor="middle" x="546" y="-62.6" font-family="Times,serif" font-size="14.00">AppRoutingModule</text>
</g>
<!-- AppRoutingModule&#45;&gt;AppModule -->
<g id="edge2" class="edge">
<title>AppRoutingModule&#45;&gt;AppModule</title>
<path fill="none" stroke="black" d="M546,-84.82C546,-102.17 546,-125.8 546,-125.8 546,-125.8 412.98,-125.8 412.98,-125.8"/>
<polygon fill="black" stroke="black" points="412.98,-122.3 402.98,-125.8 412.98,-129.3 412.98,-122.3"/>
</g>
<!-- CoreModule -->
<g id="node4" class="node">
<title>CoreModule</title>
<polygon fill="#8dd3c7" stroke="black" points="463.26,-84.8 460.26,-88.8 439.26,-88.8 436.26,-84.8 376.74,-84.8 376.74,-48.8 463.26,-48.8 463.26,-84.8"/>
<text text-anchor="middle" x="420" y="-62.6" font-family="Times,serif" font-size="14.00">CoreModule</text>
</g>
<!-- CoreModule&#45;&gt;AppModule -->
<g id="edge3" class="edge">
<title>CoreModule&#45;&gt;AppModule</title>
<path fill="none" stroke="black" d="M389.72,-84.91C389.72,-84.91 389.72,-103.79 389.72,-103.79"/>
<polygon fill="black" stroke="black" points="386.22,-103.79 389.72,-113.79 393.22,-103.79 386.22,-103.79"/>
</g>
<!-- GraphQLModule -->
<g id="node5" class="node">
<title>GraphQLModule</title>
<polygon fill="#8dd3c7" stroke="black" points="358.69,-84.8 355.69,-88.8 334.69,-88.8 331.69,-84.8 245.31,-84.8 245.31,-48.8 358.69,-48.8 358.69,-84.8"/>
<text text-anchor="middle" x="302" y="-62.6" font-family="Times,serif" font-size="14.00">GraphQLModule</text>
</g>
<!-- GraphQLModule&#45;&gt;AppModule -->
<g id="edge4" class="edge">
<title>GraphQLModule&#45;&gt;AppModule</title>
<path fill="none" stroke="black" d="M338.88,-84.91C338.88,-84.91 338.88,-103.79 338.88,-103.79"/>
<polygon fill="black" stroke="black" points="335.38,-103.79 338.88,-113.79 342.38,-103.79 335.38,-103.79"/>
</g>
<!-- RootModule -->
<g id="node6" class="node">
<title>RootModule</title>
<polygon fill="#8dd3c7" stroke="black" points="227.28,-84.8 224.28,-88.8 203.28,-88.8 200.28,-84.8 140.72,-84.8 140.72,-48.8 227.28,-48.8 227.28,-84.8"/>
<text text-anchor="middle" x="184" y="-62.6" font-family="Times,serif" font-size="14.00">RootModule</text>
</g>
<!-- RootModule&#45;&gt;AppModule -->
<g id="edge5" class="edge">
<title>RootModule&#45;&gt;AppModule</title>
<path fill="none" stroke="black" d="M184,-84.82C184,-102.17 184,-125.8 184,-125.8 184,-125.8 309.05,-125.8 309.05,-125.8"/>
<polygon fill="black" stroke="black" points="309.05,-129.3 319.05,-125.8 309.05,-122.3 309.05,-129.3"/>
</g>
<!-- SharedModule -->
<g id="node7" class="node">
<title>SharedModule</title>
<polygon fill="#8dd3c7" stroke="black" points="122.42,-84.8 119.42,-88.8 98.42,-88.8 95.42,-84.8 23.58,-84.8 23.58,-48.8 122.42,-48.8 122.42,-84.8"/>
<text text-anchor="middle" x="73" y="-62.6" font-family="Times,serif" font-size="14.00">SharedModule</text>
</g>
<!-- SharedModule&#45;&gt;AppModule -->
<g id="edge6" class="edge">
<title>SharedModule&#45;&gt;AppModule</title>
<path fill="none" stroke="black" d="M73,-85.08C73,-106.12 73,-137.8 73,-137.8 73,-137.8 309.12,-137.8 309.12,-137.8"/>
<polygon fill="black" stroke="black" points="309.12,-141.3 319.12,-137.8 309.12,-134.3 309.12,-141.3"/>
</g>
</g>
</svg>
